M48
;Layer_Color=9474304
;FILE_FORMAT=2:5
INCH,LZ
;TYPE=PLATED
T1F00S00C0.01000
T2F00S00C0.01200
T3F00S00C0.03543
%
T01
X0046373Y0046973
X0051617Y0053311
X005021Y0056185
X0050201Y0059385
X0051597Y0062264
X0054094Y0064266
X0060334Y0064254
X0062821Y006224
X0065935Y0061505
X0066Y0053895
X006284Y0053386
X0060364Y0051358
X0057248Y005063
X0054124Y0051322
X00692Y0053895
X0072399
X0075599
X0078799
X0081999Y0053958
X0085045Y005494
X0087438Y0057063
X0088828Y0059946
X0089056Y0063138
X0081446Y0063206
X0078735Y0061505
X0075535
X0072335
X0069135
X0068027Y0046973
X0104424Y0046193
Y0049393
Y0052593
Y0055793
Y0058993
Y0062193
X0112034Y0063521
Y0060321
Y0057121
Y0053921
Y0050721
Y0047521
X0112498Y0044355
X0115484Y0043205
X0118684
X0121884
X0125084
X0128283Y0043106
X0131272Y0041964
X0134331Y0042752
Y0045952
Y0049152
Y0052351
Y0055551
Y0058751
Y0061952
X014173Y00618
Y0057
Y00522
Y00474
Y00426
Y00378
Y0033
Y00282
Y00234
X0141661Y0018427
X0141966Y0015241
X0143506Y0012436
X0146086Y0010544
X0149218Y0009886
X0152335Y0010609
X0154862Y0012572
X0158167Y0012436
X0156627Y0015241
X015643Y00184
Y00232
Y0028
Y00328
Y00376
Y00424
Y00472
Y0052
Y00568
Y00616
X016383Y00612
Y00564
Y00516
Y00468
Y0042
Y00372
Y00324
Y00276
Y00228
Y0018
X0171131Y00184
X0171288Y0015241
X0172827Y0012436
X0169523Y0012572
X0166996Y0010609
X0163879Y0009886
X0160747Y0010544
X0175408
X017854Y0009886
X0181657Y0010609
X0184184Y0012572
X0187488Y0012436
X0185949Y0015241
X018583Y00182
Y0023
Y00278
Y00326
Y00374
Y00422
Y0047
Y00518
Y00566
Y00614
X0193031Y00616
Y00568
Y0052
Y00472
Y00424
Y00376
Y00328
Y0028
Y00232
Y00184
X020063Y00187
X020061Y0015241
X020215Y0012436
X0198845Y0012572
X0196318Y0010609
X0193201Y0009886
X0190069Y0010544
X020473
X0207862Y0009886
X0210979Y0010609
X0213506Y0012572
X021681Y0012436
X0215271Y0015241
X0214931Y00185
Y00233
Y00281
Y00329
Y00377
Y00425
Y00473
Y00521
Y00569
Y00617
X0208031Y00609
Y00561
Y00513
Y00465
Y00417
Y00369
Y00321
Y00273
Y00225
Y00177
X020063Y00235
Y00283
Y00331
Y00379
Y00427
Y00475
Y00523
Y00571
Y00619
X0222531Y00607
Y00559
Y00511
Y00463
Y00415
Y00367
Y00319
Y00271
Y00223
Y00175
X0222523Y0009886
X0219391Y0010544
X0178531Y00177
Y00225
Y00273
Y00321
Y00369
Y00417
Y00465
Y00513
Y00561
Y00609
X0171131Y00616
Y00568
Y0052
Y00472
Y00424
Y00376
Y00328
Y0028
Y00232
X014903Y00227
Y00275
Y00323
Y00371
Y00419
Y00467
Y00515
Y00563
Y00611
X0133495Y0039663
X013453Y00329
Y00281
Y00233
X0127003Y002233
X0127Y002553
Y002873
Y003193
Y003513
X0123834Y0035595
X0120634
X0117434
X0114234
X011108Y0036136
X0108317Y0037749
X0106152Y0040106
X0104826Y0043019
X0127859Y0019247
X0129935Y0016812
X0132826Y001544
X0136026Y0015416
X0138933Y0016755
X014903Y00179
X0229831Y00185
X0229932Y0015241
X0231471Y0012436
X0228167Y0012572
X022564Y0010609
X0234052Y0010544
X0237184Y0009886
X0240301Y0010609
X0242828Y0012572
X0246132Y0012436
X0244593Y0015241
X0244531Y00181
Y00229
Y00277
Y00325
Y00373
Y00421
Y00469
Y00517
Y00565
Y00613
X0237031Y00611
Y00563
Y00515
Y00467
Y00419
Y00371
Y00323
Y00275
Y00227
Y00179
X0229831Y00233
Y00281
Y00329
Y00377
Y00425
Y00473
Y00521
Y00569
Y00617
X025203Y0061
Y00562
Y00514
Y00466
Y00418
Y0037
Y00322
Y00274
Y00226
Y00178
X0251845Y0009886
X0248713Y0010544
X0254962Y0010609
X0257489Y0012572
X0260793Y0012436
X0259254Y0015241
X025923Y00189
Y00237
Y00285
Y00333
Y00381
Y00429
Y00477
Y00525
Y00573
Y00621
X0266231Y00609
Y00561
Y00513
Y00465
Y00417
Y00369
Y00321
Y00273
Y00225
Y00177
X0266506Y0009886
X0263374Y0010544
X0269623Y0010609
X027215Y0012572
X0275454Y0012436
X0273915Y0015241
X027403Y00191
Y00239
Y00287
Y00335
Y00383
Y00431
Y00479
Y00527
Y00575
Y00623
X0281131Y00602
Y00554
Y00506
Y00458
Y0041
Y00362
Y00314
Y00266
Y00218
Y0017
X0281167Y0009886
X0278035Y0010544
X0284284Y0010609
X0286811Y0012572
X0290115Y0012436
X0288576Y0015242
X0288331Y00191
Y00239
Y00287
Y00335
Y00383
Y00431
Y00479
Y00527
Y00575
Y00623
X0295931Y0061
Y00562
Y00514
Y00466
Y00418
Y0037
Y00322
Y00274
Y00226
Y00178
X0295828Y0009886
X0292696Y0010544
X0298945Y0010609
X0301472Y0012572
X0304777Y0012436
X0303237Y0015241
X030303Y00191
Y00239
Y00287
Y00335
Y00383
Y00431
Y00479
Y00527
Y00575
Y00623
X031023Y00603
Y00555
Y00507
Y00459
Y00411
Y00363
Y00315
Y00267
Y00219
Y00171
X0310489Y0009886
X0307357Y0010544
X0313606Y0010609
X0316133Y0012572
X0319437Y0012436
X0317898Y0015242
X031783Y00189
Y00237
Y00285
Y00333
Y00381
Y00429
Y00477
Y00525
Y00573
Y00621
X03252Y00608
Y0056
Y00512
Y00464
Y00416
Y00368
Y0032
Y00272
Y00224
Y00176
X0325149Y0009886
X0322018Y0010544
X0328267Y0010609
X0330794Y0012572
X0334099Y0012436
X0332559Y0015241
X033223Y00185
Y00233
Y00281
Y00329
Y00377
Y00425
Y00473
Y00521
Y00569
Y00617
X0339931Y00607
Y00559
Y00511
Y00463
Y00415
Y00367
Y00319
Y00271
Y00223
Y00175
X0339811Y0009886
X0336679Y0010544
X0342928Y0010609
X0345455Y0012572
X0348759Y0012436
X034722Y0015242
X0347231Y00191
Y00239
Y00287
Y00335
Y00383
Y00431
Y00479
Y00527
Y00575
Y00623
X0354431Y00608
Y0056
Y00512
Y00464
Y00416
Y00368
Y0032
Y00272
Y00224
Y00176
X0354471Y0009886
X035134Y0010544
X0357589Y0010609
X0360116Y0012572
X0363421Y0012436
X0361881Y0015241
X0361731Y00189
Y00237
Y00285
Y00333
Y00381
Y00429
Y00477
Y00525
Y00573
Y00621
X036913Y0061
Y00562
Y00514
Y00466
Y00418
Y0037
Y00322
Y00274
Y00226
Y00178
X0369133Y0009886
X0366002Y0010543
X037225Y0010609
X0374777Y0012573
X0378081Y0012437
X0376542Y0015242
X0376531Y0019
Y00238
Y00286
Y00334
Y00382
Y0043
Y00478
Y00526
Y00574
Y00622
X038353Y00609
Y00561
Y00513
Y00465
Y00417
Y00369
Y00321
Y00273
Y00225
Y00177
X0383793Y0009886
X0380661Y0010544
X038691Y0010609
X0389438Y0012572
X0392743Y0012435
X0391203Y001524
X039113Y00186
Y00234
Y00282
Y0033
Y00378
Y00426
Y00474
Y00522
Y0057
Y00618
X039833Y00607
Y00559
Y00511
Y00463
Y00415
Y00367
Y00319
Y00271
Y00223
Y00175
X0398456Y0009886
X0395324Y0010543
X0401573Y001061
X04041Y0012573
X0407403Y0012437
X0405864Y0015243
X040563Y00186
Y00234
Y00282
Y0033
Y00378
Y00426
Y00474
Y00522
Y0057
Y00618
X041303Y00606
Y00558
Y0051
Y00462
Y00414
Y00366
Y00318
Y0027
Y00222
Y00174
X0413114Y0009886
X0409983Y0010544
X0416231Y0010609
X0418759Y0012571
X0422066Y0012434
X0420526Y0015239
X0420631Y00186
Y00234
Y00282
Y0033
Y00378
Y00426
Y00474
Y00522
Y0057
Y00618
X0427831Y00609
Y00561
Y00513
Y00465
Y00417
Y00369
Y00321
Y00273
Y00225
Y00177
X0427779Y0009886
X0424647Y0010543
X0430896Y001061
X0433422Y0012574
X0436724Y0012438
X0435185Y0015245
X0435131Y00185
Y00233
Y00281
Y00329
Y00377
Y00425
Y00473
Y00521
Y00569
Y00617
X044243Y00611
Y00563
Y00515
Y00467
Y00419
Y00371
Y00323
Y00275
Y00227
Y00179
X044973Y00183
X0449848Y0015237
X0451389Y0012432
X044808Y001257
X0445552Y0010608
X0442435Y0009886
X0439303Y0010545
X0453971Y0010542
X0457103Y0009886
X046022Y0010611
X0462746Y0012576
X0466043Y0012441
X0464506Y0015248
X0464431Y00192
Y0024
Y00288
Y00336
Y00384
Y00432
Y0048
Y00528
Y00576
Y00624
X0471931Y00608
Y0056
Y00512
Y00464
Y00416
Y00368
Y0032
Y00272
Y00224
Y00176
X0479131Y00182
X0479172Y0015232
X0480714Y0012428
X04774Y0012567
X0474871Y0010607
X0471753Y0009886
X0468622Y0010546
X0483298Y001054
X048643Y0009886
X0489547Y0010613
X0492071Y001258
X0495361Y0012447
X0493826Y0015255
X0493631Y00188
Y00236
Y00284
Y00332
Y0038
Y00428
Y00476
Y00524
Y00572
Y0062
X050123Y00613
Y00565
Y00517
Y00469
Y00421
Y00373
Y00325
Y00277
Y00229
Y00181
X050843Y00188
X0508497Y0015221
X0510043Y001242
X0506718Y0012561
X0504186Y0010604
X0501068Y0009886
X0497937Y0010549
X051263Y0010536
X0515763Y0009886
X0518878Y0010617
X0521399Y0012588
X0524674Y0012459
X0523144Y001527
X052333Y00189
Y00237
Y00285
Y00333
Y00381
Y00429
Y00477
Y00525
Y00573
Y00621
X0530531Y00607
Y00559
Y00511
Y00463
Y00415
Y00367
Y00319
Y00271
Y00223
Y00175
X0530375Y0009886
X0527245Y0010555
X0533494Y0010598
X051563Y00174
Y00222
Y0027
Y00318
Y00366
Y00414
Y00462
Y0051
Y00558
Y00606
X050843Y0062
Y00572
Y00524
Y00476
Y00428
Y0038
Y00332
Y00284
Y00236
X0486331Y00225
Y00177
Y00273
Y00321
Y00369
Y00417
Y00465
Y00513
Y00561
Y00609
X0479131Y00614
Y00566
Y00518
Y0047
Y00422
Y00374
Y00326
Y00278
Y0023
X045693Y00222
Y00174
Y0027
Y00318
Y00366
Y00414
Y00462
Y0051
Y00558
Y00606
X044973Y00615
Y00567
Y00519
Y00471
Y00423
Y00375
Y00327
Y00279
Y00231
X0537531Y0023
Y00182
X0537824Y0015199
X0539378Y0012402
X053603Y0012549
X0541972Y0010527
X0545107Y0009886
X054822Y0010625
X0550734Y0012605
X05522Y001545
X0552449Y001864
Y002184
Y002504
Y002824
Y003144
Y003464
X0555433Y0035794
X0558633Y0035795
X0561833Y0035795
X0565033Y0035795
X0568233Y0035795
X0571433Y0035795
X0574633Y0035795
X0577833Y0035795
X0581033Y0035795
X0584233Y003579
X0587376Y0036394
X0590182Y0037931
X0592393Y0040245
X0593762Y0043137
X0594205Y0046306
Y0049507
Y0052706
X0594222Y0055906
X0593536Y0059032
X0592035Y0063156
X0588835
X0584662Y0063126
X0580388Y0063296
X0575588
X0570788
X0565988
X0561188
X0556388
X0556384Y0055802
X0559584Y0055826
X0562784
X0565984
X0569184
X0572384
X0575584
X0578784
X0581984
X0585184
X0586595Y0052953
Y0049753
Y0046554
X0585112Y0043718
X0581927Y0043405
X0578727Y0043405
X0575527Y0043405
X0572327Y0043405
X0569127Y0043405
X0565927Y0043405
X0562727Y0043405
X0559527Y0043405
X0556327Y0043405
X0553127Y0043405
X0549977Y004284
X0547223Y004121
X0545118Y0042
Y00388
X0545107Y0032873
Y0028073
Y0023273
Y0018473
X0537531Y00278
Y00326
Y00374
Y00422
Y0047
Y00518
Y00566
Y00614
X0545118Y00612
Y0058
Y00548
Y00516
Y00484
Y00452
X055071Y0058445
X05492Y0061266
X0553265Y0056518
X0595235Y0063156
X0598435
X0601635
X0604835
X0608035
X0611235
X0614435
X0617622Y0063447
X0620437Y0064968
X0622352Y0067532
X062303Y0070659
X0622327Y0073781
X0620385Y0076325
X0620542Y0079709
X0617752Y0078143
X0613888Y0077957
X0609088
X0604288
X0599488
X0594788
X0589988
X0585188
X0580388
X0575588
X0570788
X0565988
X0561188
X0556388
X0548928Y0078425
X0549431Y0075264
X0551191Y0072592
X055248Y0069663
X0550173Y0067446
X0549019Y0064461
X0545118Y00644
Y00676
Y00708
Y0074
Y00772
Y00804
Y00836
Y00868
Y009
X0544813Y0093186
X0543274Y0095991
X0540693Y0097884
X0537562Y0098541
X0537531Y00902
Y00854
Y00806
Y00758
Y0071
Y00662
X0558062Y0070626
X0562862
X0567662
X0572462
X0577262
X0582062
X0586862
X0591662
X0596462
X0601162
X0605962
X0610762
X0615562
Y0085287
X0610762
X0605962
X0601162
X0596462
X0591662
X0586862
X0582062
X0577262
X0572462
X0567662
X0562862
X0558062
X0554809Y0085265
X0551907Y0083918
X0551922Y0086645
X054982Y0089058
X054893Y0092131
X0549424Y0095293
X0551178Y0097969
X0551424Y0101688
X0549555Y0104287
X054892Y0107423
X0549665Y0110535
X0551651Y0113044
X0551732Y0116112
X0554498Y0114504
X0558062Y0114609
X0562862
X0567662
X0572462
X0577262
X0582062
X0586862
X0591662
X0596462
X0601162
X0605962
X0610762
X0615562
X062303Y0114864
X0622436Y0111719
X0620607Y0109094
X0620431Y0105612
X0617839Y0107488
X0613888Y0107279
X0609088
X0604288
X0599488
X0594788
X0589988
X0585188
X0580388
X0575588
X0570788
X0565988
X0561188
X0556388
X0558062Y0099948
X0553897Y0099658
X0562862Y0099948
X0567662
X0572462
X0577262
X0582062
X0586862
X0591662
X0596462
X0601162
X0605962
X0610762
X0615562
X062303Y0099923
X0622349Y010305
X062233Y0096801
X0620391Y0094254
X0620283Y0091064
X0617565Y0092754
X0613888Y0092618
X0609088
X0604288
X0599488
X0594788
X0589988
X0585188
X0580388
X0575588
X0570788
X0565988
X0561188
X0556388
X054981Y00815
X0549704Y0118588
X054892Y012169
X0549515Y0124835
X0551346Y0127459
X0551521Y0130936
X0554115Y0129062
X0558062Y012927
X0562862
X0567662
X0572462
X0577262
X0582062
X0586862
X0591662
X0596462
X0601162
X0605962
X0610762
X0615562
X062303Y0129119
X0622397Y0132256
X0620532Y0134856
X0620782Y013859
X0618067Y0136897
X0613888Y0136601
X0609088
X0604288
X0599488
X0594788
X0589988
X0585188
X0580388
X0575588
X0570788
X0565988
X0561188
X0556388
X054892Y0136623
X0549602Y0133496
X0549619Y0139745
X0551556Y0142293
X0551665Y0145486
X0554381Y0143795
X0558062Y0143931
X0562862
X0567662
X0572462
X0577262
X0582062
X0586862
X0591662
X0596462
X0601162
X0605962
X0610762
X0615562
X0623017Y0144433
X0622531Y014127
X0622122Y0147505
X0620015Y0149914
X0620027Y0152619
X0617121Y0151279
X06135Y01512
X06087
X06039
X05991
X05944
X05896
X05848
X058
X05752
X05704
X05656
X05608
X0556
X054892Y01511
X0549548Y0154237
X0551409Y0156841
X0551565Y0160223
X05542Y0158407
X0558062Y0158592
X0562862
X0567662
X0572462
X0577262
X0582062
X0586862
X0591662
X0596462
X0601162
X0605962
X0610762
X0615562
X0623019Y0158105
X0622526Y0161267
X0620772Y0163943
X0619185Y0166722
X0621579Y0168845
X0622888Y0171766
X0622834Y0174965
X0621438Y0177845
X0618986Y01799
X0615893Y0180721
X0612693Y0180724
X0609493
X0606293
X0603093
X0599893
X0596693
X0593493
X0592755Y018351
X0594061Y0186431
X0594205Y0189628
Y0192828
Y0196028
Y0199228
Y0202428
X0593932Y0205616
X0592755Y0208592
X0590817Y0211138
X0588216Y0213002
X0585206Y0214087
X0582013Y0214305
X0578813
X0575613
X0572413
X0569213
X0566013
X0562813
X0559613
X0556413
X0553213
X0550013
X0546813
X0544742Y0216745
Y0219945
X05373Y02195
Y02147
X0537884Y0210898
X0537412Y0207733
X0539875Y0208393
X0542725Y0206937
X0545916Y0206695
X0549116
X0552316
X0555516
X0558716
X0561916
X0565116
X0568316
X0571516
X0574716
X0577916
X0581116
X0584304Y0206422
X0586435Y0204035
X0586595Y0200839
Y0197639
Y0194439
Y0191239
X0586281Y0188054
X0583081
X0579881
X0576681
X0573481
X0570281
X0567081
X0563881
X0560681
X0557481
X0554296Y0187746
X0551492Y0186204
X0549604Y018362
X054895Y0180488
X0549677Y0177371
X0551644Y0174847
X0551511Y0171581
X0554326Y0173102
X0558062Y0173253
X0562862
X0567662
X0572462
X0577262
X0582062
X0586862
X0591662
X0596462
X0601162
X0605962
X0610762
X0615562
X06138Y0166
X0609
X06042
X05994
X05947
X05899
X05851
X05803
X05755
X05707
X05659
X05611
X05563
X054892Y0165889
X0549597Y0169016
X0549623Y0162767
X0537412Y0162933
Y0159733
Y0156533
Y0153333
Y0150133
Y0146933
Y0143733
Y0140533
Y0137333
Y0134133
Y0130933
Y0127733
Y0124533
Y0121333
Y0118133
X0536908Y0114973
X0556388Y012194
X0561188
X0565988
X0570788
X0575588
X0580388
X0585188
X0589988
X0594788
X0599488
X0604288
X0609088
X0613888
X0617445Y0122044
X0620293Y0123501
X0620214Y012044
X0622243Y0117966
X0622282Y0126008
X0622129Y0155031
X0590362Y0181385
X0585695Y0180595
X05805Y01806
X05757
X05709
X05661
X05613
X05565
X0537412Y0182133
Y0178933
Y0175733
Y0172533
Y0169333
Y0166133
Y0185333
Y0188533
Y0191733
Y0194933
Y0198133
Y0201333
Y0204533
X0549672Y0147989
X0622277Y0088562
X062303Y0085452
X0622402Y0082314
X0530531Y00847
Y00799
Y00751
Y00703
Y00655
X052333Y00669
Y00717
Y00765
Y00813
Y00861
Y00909
X0522901Y0098541
X0526032Y0097884
X0528613Y0095991
X0531917Y0095855
X0530152Y0093186
X0530531Y00895
X0534445Y0097818
X0519783Y0097818
X0517256Y0095855
X0513952Y0095991
X0515491Y0093186
X051563Y00894
Y00846
Y00798
Y0075
Y00702
Y00654
X050843Y00668
Y00716
Y00764
Y00812
Y0086
Y00908
X050123Y00901
X050083Y0093186
X0499291Y0095991
X0502595Y0095855
X0505123Y0097818
X050824Y0098541
X0511371Y0097883
X0511863Y0110989
X0514957Y0110172
X0518107Y0110739
X0520748Y0112546
X0523851Y0113327
X0526213Y0111169
X0529265Y0110207
X0532441Y0110603
X0535157Y0112294
X05299Y01176
Y01224
Y01272
Y0132
Y01368
Y01416
Y01464
Y01512
Y0156
Y01608
Y01656
Y01704
Y01752
Y018
Y01848
Y01896
Y01944
Y01992
Y0204
Y02088
Y02136
Y02184
X05224Y02195
Y02147
Y02099
Y02051
Y02003
Y01955
Y01907
Y01859
Y01811
Y01763
Y01715
Y01667
Y01619
Y01571
Y01523
Y01475
Y01427
Y01379
Y01331
Y01283
Y01235
Y01187
X05153
Y01235
Y01283
Y01331
Y01379
Y01427
Y01475
Y01523
Y01571
Y01619
Y01667
Y01715
Y01763
Y01811
Y01859
Y01907
Y01955
Y02003
Y02051
Y02099
Y02147
Y02195
X05078Y0219
Y02142
Y02094
Y02046
Y01998
Y0195
Y01902
Y01854
Y01806
Y01758
Y0171
Y01662
Y01614
Y01566
Y01518
Y0147
Y01422
Y01374
Y01326
Y01278
Y0123
Y01182
X050801Y011592
X0509409Y0113042
X0506525Y0113085
X0504083Y0111016
X0500997Y0110172
X0497844Y0110717
X0495191Y0112507
X049158Y0112716
X0488998Y0110827
X0485865Y0110172
X0482749Y0110897
X0480224Y0112863
X0477103Y0112956
X0478746Y0115701
X04788Y01185
Y01233
Y01281
Y01329
Y01377
Y01425
Y01473
Y01521
Y01569
Y01617
Y01665
Y01713
Y01761
Y01809
Y01857
Y01905
Y01953
Y02001
Y02049
Y02097
Y02145
Y02193
X04861Y02197
Y02149
Y02101
Y02053
Y02005
Y01957
Y01909
Y01861
Y01813
Y01765
Y01717
Y01669
Y01621
Y01573
Y01525
Y01477
Y01429
Y01381
Y01333
Y01285
Y01237
Y01189
X04934Y0118
X0493539Y0115247
X04934Y01228
Y01276
Y01324
Y01372
Y0142
Y01468
Y01516
Y01564
Y01612
Y0166
Y01708
Y01756
Y01804
Y01852
Y019
Y01948
Y01996
Y02044
Y02092
Y0214
Y02188
X05005Y0219
Y02142
Y02094
Y02046
Y01998
Y0195
Y01902
Y01854
Y01806
Y01758
Y0171
Y01662
Y01614
Y01566
Y01518
Y0147
Y01422
Y01374
Y01326
Y01278
Y0123
Y01182
X049671Y0097884
X0493579Y0098541
X0490461Y0097818
X0487934Y0095855
X048463Y0095991
X0486169Y0093186
X0486331Y00897
Y00849
Y00801
Y00753
Y00705
Y00657
X0479131Y00662
Y0071
Y00758
Y00806
Y00854
Y00902
X0471931Y00896
X0471508Y0093186
X0469969Y0095991
X0473273Y0095855
X0475801Y0097818
X0478918Y0098541
X048205Y0097883
X0467388Y0097884
X0464256Y0098541
X0461139Y0097818
X0458612Y0095855
X0455308Y0095991
X0456847Y0093186
X045693Y00894
Y00846
Y00798
Y0075
Y00702
Y00654
X044973Y00663
Y00711
Y00759
Y00807
Y00855
Y00903
X044243Y00899
X0442186Y0093186
X0440647Y0095992
X0443952Y0095855
X0446479Y0097818
X0449596Y0098541
X0452728Y0097883
X0453513Y0110862
X0456638Y0110172
X0459762Y0110863
X0462316Y0112791
X0465752Y0112624
X0464165Y0115402
X0464Y01185
Y01233
Y01281
Y01329
Y01377
Y01425
Y01473
Y01521
Y01569
Y01617
Y01665
Y01713
Y01761
Y01809
Y01857
Y01905
Y01953
Y02001
Y02049
Y02097
Y02145
Y02193
X04713Y0219
Y02142
Y02094
Y02046
Y01998
Y0195
Y01902
Y01854
Y01806
Y01758
Y0171
Y01662
Y01614
Y01566
Y01518
Y0147
Y01422
Y01374
Y01326
Y01278
Y0123
Y01182
X047151Y0110172
X0468368Y0110781
X0474616Y0110942
X04569Y01176
Y01224
Y01272
Y0132
Y01368
Y01416
Y01464
Y01512
Y0156
Y01608
Y01656
Y01704
Y01752
Y018
Y01848
Y01896
Y01944
Y01992
Y0204
Y02088
Y02136
Y02184
X04494Y02197
Y02149
Y02101
Y02053
Y02005
Y01957
Y01909
Y01861
Y01813
Y01765
Y01717
Y01669
Y01621
Y01573
Y01525
Y01477
Y01429
Y01381
Y01333
Y01285
Y01237
Y01189
X0449449Y011561
X0450958Y0112789
X0447741Y0112904
X0445233Y0110917
X0442121Y0110172
X0438984Y0110807
X0436386Y0112674
X043302Y0112826
X0434826Y0115468
X04348Y01191
Y01239
Y01287
Y01335
Y01383
Y01431
Y01479
Y01527
Y01575
Y01623
Y01671
Y01719
Y01767
Y01815
Y01863
Y01911
Y01959
Y02007
Y02055
Y02103
Y02151
Y02199
X04421Y02188
Y0214
Y02092
Y02044
Y01996
Y01948
Y019
Y01852
Y01804
Y01756
Y01708
Y0166
Y01612
Y01564
Y01516
Y01468
Y0142
Y01372
Y01324
Y01276
Y01228
Y0118
X04272
Y01228
Y01276
Y01324
Y01372
Y0142
Y01468
Y01516
Y01564
Y01612
Y0166
Y01708
Y01756
Y01804
Y01852
Y019
Y01948
Y01996
Y02044
Y02092
Y0214
Y02188
X04199Y02193
Y02145
Y02097
Y02049
Y02001
Y01953
Y01905
Y01857
Y01809
Y01761
Y01713
Y01665
Y01617
Y01569
Y01521
Y01473
Y01425
Y01377
Y01329
Y01281
Y01233
Y01185
X0420138Y0115567
X0421663Y0112754
X0418401Y011288
X0415883Y0110906
X0412768Y0110172
X0409634Y0110819
X0407045Y0112699
X0403711Y0112843
X0405496Y0115499
X04055Y01185
Y01233
Y01281
Y01329
Y01377
Y01425
Y01473
Y01521
Y01569
Y01617
Y01665
Y01713
Y01761
Y01809
Y01857
Y01905
Y01953
Y02001
Y02049
Y02097
Y02145
Y02193
X0398
Y02145
Y02097
Y02049
Y02001
Y01953
Y01905
Y01857
Y01809
Y01761
Y01713
Y01665
Y01617
Y01569
Y01521
Y01473
Y01425
Y01377
Y01329
Y01281
Y01233
Y01185
X03907Y01182
X0390822Y0115546
X0392354Y0112737
X038907Y0112868
X0386547Y01109
X0383431Y0110172
X0380298Y0110824
X03832Y0118
Y01228
Y01276
Y01324
Y01372
Y0142
Y01468
Y01516
Y01564
Y01612
Y0166
Y01708
Y01756
Y01804
Y01852
Y019
Y01948
Y01996
Y02044
Y02092
Y0214
Y02188
X03907Y0219
Y02142
Y02094
Y02046
Y01998
Y0195
Y01902
Y01854
Y01806
Y01758
Y0171
Y01662
Y01614
Y01566
Y01518
Y0147
Y01422
Y01374
Y01326
Y01278
Y0123
X0394929Y0110837
X0398059Y0110172
X0401178Y0110887
X0402495Y0097818
X0405612Y0098541
X0408744Y0097884
X0411324Y0095992
X041463Y0095855
X0412864Y0093187
X041303Y00894
Y00846
Y00798
Y0075
Y00702
Y00654
X040563Y00666
Y00714
Y00762
Y0081
Y00858
Y00906
X039833Y00895
X0398203Y0093185
X0396665Y009599
X0399968Y0095854
X0394084Y0097883
X0390953Y0098541
X0387836Y0097818
X0385308Y0095856
X0382002Y0095993
X0383542Y0093187
X038353Y00897
Y00849
Y00801
Y00753
Y00705
Y00657
X039113Y00666
Y00714
Y00762
Y0081
Y00858
Y00906
X039833Y00847
Y00799
Y00751
Y00703
Y00655
X0420631Y00666
Y00714
Y00762
Y0081
Y00858
Y00906
X0427831Y00897
X0427525Y0093185
X0425986Y0095991
X042929Y0095855
X0431817Y0097818
X0434934Y0098541
X0438066Y0097884
X0435131Y00905
Y00857
Y00809
Y00761
Y00713
Y00665
X044243Y00659
Y00707
Y00755
Y00803
Y00851
X0427831Y00849
Y00801
Y00753
Y00705
Y00657
X0423406Y0097883
X0420274Y0098541
X0417157Y0097818
X0424231Y0110845
X042736Y0110172
X0430481Y0110879
X04126Y01176
Y01224
Y01272
Y0132
Y01368
Y01416
Y01464
Y01512
Y0156
Y01608
Y01656
Y01704
Y01752
Y018
Y01848
Y01896
Y01944
Y01992
Y0204
Y02088
Y02136
Y02184
X0379421Y0097884
X0464431Y00912
Y00864
Y00816
Y00768
Y0072
Y00672
X0471931Y00656
Y00704
Y00752
Y008
Y00848
X0493631Y0086
Y00812
Y00764
Y00716
Y00668
X050123Y00661
Y00709
Y00757
Y00805
Y00853
X0493631Y00908
X0376531Y0091
Y00862
Y00814
Y00766
Y00718
Y0067
X036913Y00658
Y00706
Y00754
Y00802
Y0085
Y00898
X0368882Y0093183
X0367343Y0095989
X0370645Y0095854
X0373172Y0097817
X0376289Y0098541
X0364764Y0097883
X0361632Y0098541
X0358515Y0097819
X0355987Y0095857
X0352679Y0095994
X0354219Y0093189
X0354431Y00896
Y00848
Y008
Y00752
Y00704
Y00656
X0361731Y00669
Y00717
Y00765
Y00813
Y00861
Y00909
X0347231Y00911
Y00863
Y00815
Y00767
Y00719
Y00671
X0339931Y00655
Y00703
Y00751
Y00799
Y00847
Y00895
X0339561Y0093181
X0338023Y0095987
X0341322Y0095852
X0343848Y0097817
X0346965Y0098541
X0350097Y0097885
X035097Y0110827
X0354102Y0110172
X0357219Y0110897
X0359744Y0112863
X0363039Y0112729
X0361503Y0115536
X03613Y01178
Y01226
Y01274
Y01322
Y0137
Y01418
Y01466
Y01514
Y01562
Y0161
Y01658
Y01706
Y01754
Y01802
Y0185
Y01898
Y01946
Y01994
Y02042
Y0209
Y02138
Y02186
X03542Y0219
Y02142
Y02094
Y02046
Y01998
Y0195
Y01902
Y01854
Y01806
Y01758
Y0171
Y01662
Y01614
Y01566
Y01518
Y0147
Y01422
Y01374
Y01326
Y01278
Y0123
Y01182
X03469Y01185
X0346846Y0115521
X0348387Y0112716
X0345076Y0112854
X0342548Y0110893
X033943Y0110172
X0336299Y0110831
X033372Y0112725
X033042Y011286
X0332182Y0115532
X03323Y01182
Y0123
Y01278
Y01326
Y01374
Y01422
Y0147
Y01518
Y01566
Y01614
Y01662
Y0171
Y01758
Y01806
Y01854
Y01902
Y0195
Y01998
Y02046
Y02094
Y02142
Y0219
X03394Y02195
Y02147
Y02099
Y02051
Y02003
Y01955
Y01907
Y01859
Y01811
Y01763
Y01715
Y01667
Y01619
Y01571
Y01523
Y01475
Y01427
Y01379
Y01331
Y01283
Y01235
Y01187
X03469Y01233
Y01281
Y01329
Y01377
Y01425
Y01473
Y01521
Y01569
Y01617
Y01665
Y01713
Y01761
Y01809
Y01857
Y01905
Y01953
Y02001
Y02049
Y02097
Y02145
Y02193
X03686Y0219
Y02142
Y02094
Y02046
Y01998
Y0195
Y01902
Y01854
Y01806
Y01758
Y0171
Y01662
Y01614
Y01566
Y01518
Y0147
Y01422
Y01374
Y01326
Y01278
Y0123
Y01182
X03759
X037617Y0115514
X0377714Y0112711
X0374395Y0112851
X0371865Y0110891
X0368747Y0110172
X0365616Y0110833
X03759Y0123
Y01278
Y01326
Y01374
Y01422
Y0147
Y01518
Y01566
Y01614
Y01662
Y0171
Y01758
Y01806
Y01854
Y01902
Y0195
Y01998
Y02046
Y02094
Y02142
Y0219
X03247
Y02142
Y02094
Y02046
Y01998
Y0195
Y01902
Y01854
Y01806
Y01758
Y0171
Y01662
Y01614
Y01566
Y01518
Y0147
Y01422
Y01374
Y01326
Y01278
Y0123
Y01182
X0317357Y0118619
X0317523Y0115524
X0319063Y0112719
X0315756Y0112856
X0313228Y0110894
X031011Y0110172
X0306979Y011083
X0304399Y0112723
X030286Y0115529
X0302556Y0118715
Y0121915
Y0125115
Y0128315
Y0131515
Y0134715
Y0137915
Y0141115
Y0144315
Y0147515
Y0150715
Y0153915
Y0157115
Y0160315
Y0163515
Y0166715
Y0169915
Y0173115
Y0176315
Y0179515
Y0182715
Y0185915
Y0189115
Y0192315
Y0195515
Y0198715
Y0201915
Y0205115
Y0208315
Y0211515
X0302825Y021478
Y021958
X0310026Y021844
Y0213639
Y020884
Y020404
Y019924
Y0194439
Y0189639
Y0184839
Y018004
Y017524
Y017044
Y0165639
Y0160839
Y015604
Y015124
Y014644
Y0141639
Y0136839
Y0132039
Y012724
Y012244
Y011764
X0317357Y0123419
Y0128219
Y0133019
Y0137819
Y0142619
Y0147419
Y0152219
Y0157019
Y0161819
Y0166619
Y0171419
Y0176219
Y0181019
Y0185819
Y0190619
Y0195419
Y0200219
Y0205019
Y0209819
Y0214619
Y0219419
X0295226Y0220382
Y0217182
X0293825Y0214305
X0290625
X0287425
X0284237Y0214578
X0281512Y0216256
X0280039Y0219097
X027238Y0218848
X0273083Y0215726
X0274515Y0212865
X027656Y0210403
X0279136Y0208504
X0282075Y020724
X0285233Y0206718
X0288433Y0206695
X0291633
X0294832
X0297995Y0207183
X0247083Y0201192
X0244422Y0202969
X0241338Y0203824
X023814Y0203905
X023494
X0231739
X0228548Y0203679
X0225687Y0202244
X0223175Y0203462
Y0206662
Y0209862
Y0213062
Y0216262
Y0219462
Y0200262
X0223176Y0195578
Y0190778
Y0185977
Y0181177
X0230506Y0180559
Y0183759
Y0186959
Y0190159
Y0193359
X0231778Y0196295
X0234978
X0238178
X024136Y0195964
X0242767Y0193089
Y0189889
Y0186689
Y0183489
Y0180289
Y0177089
Y0173889
Y0170689
Y0167489
Y0164289
Y0161089
Y0157889
Y0154689
Y0151489
Y0148289
Y0145089
Y0141889
Y0138689
Y0135489
Y0132289
Y0129089
X0240111Y0127304
X0236911Y0127303
X0233711Y0127303
X0231448Y0129564
Y0132764
Y0135964
Y0139164
Y0142364
Y0145564
Y0148764
Y0151964
Y0155164
X0231137Y0158349
X0229591Y0161151
X0227004Y0163035
X0223871Y0163685
X0225913Y0169589
X0228541Y0171414
X0230153Y0174178
X0230506Y0177359
X0250377Y017648
Y017968
Y018288
Y018608
Y018928
Y019248
X0250174Y0195673
X0249055Y0198671
X0250377Y017328
Y017008
Y016688
Y016368
Y016048
Y015728
Y015408
Y015088
Y014768
Y014448
Y014128
Y013808
Y013488
Y013168
X0250383Y012848
X0249894Y0125317
X0248281Y0122554
X0245756Y0120588
X0242674Y0119725
X0239475Y0119694
X0236275Y0119693
X0233074Y0119692
X0229877Y0119829
X0226945Y012111
X0224117Y0120364
Y0117164
Y0113964
Y0110764
X0223872Y0107573
X0223996Y0095803
X0226502Y0097793
X0229613Y0098541
X023275Y0097909
X0235351Y0096045
X0238725Y0095891
X0236914Y0093253
X0237031Y00899
Y00851
Y00803
Y00755
Y00707
Y00659
X0244531Y00661
Y00709
Y00757
Y00805
Y00853
Y00901
X025203Y00898
X0251605Y009314
X0250082Y0095954
X0253339Y009583
X0255856Y0097806
X025897Y0098541
X0262105Y0097896
X0264695Y0096017
X0268033Y0095872
X0266246Y0093218
X0266231Y00897
Y00849
Y00801
Y00753
Y00705
Y00657
X025923Y00669
Y00717
Y00765
Y00813
Y00861
Y00909
X025203Y0085
Y00802
Y00754
Y00706
Y00658
X0229831Y00665
Y00713
Y00761
Y00809
Y00857
Y00905
X0241267Y0097836
X0244388Y0098541
X0247516Y0097866
X0270567Y0097826
X0273686Y0098541
X0276816Y0097875
X027939Y0095974
X0282671Y0095843
X0280921Y0093164
X0281131Y0089
Y00842
Y00794
Y00746
Y00698
Y0065
X027403Y00671
Y00719
Y00767
Y00815
Y00863
Y00911
X0288331
Y00863
Y00815
Y00767
Y00719
Y00671
X0295931Y00658
Y00706
Y00754
Y00802
Y0085
Y00898
X0295572Y0093201
X0294027Y0096004
X0297348Y0095863
X0299878Y0097822
X0302996Y0098541
X0306127Y0097879
X0308704Y0095983
X0311998Y0095849
X031024Y0093175
X031023Y00891
Y00843
Y00795
Y00747
Y00699
Y00651
X030303Y00671
Y00719
Y00767
Y00815
Y00863
Y00911
X031783Y00909
Y00861
Y00813
Y00765
Y00717
Y00669
X03252Y00656
Y00704
Y00752
Y008
Y00848
Y00896
X0324896Y0093193
X0323354Y0095997
X0326666Y0095859
X0329195Y009782
X0332313Y0098541
X0335444Y0097882
X033223Y00905
Y00857
Y00809
Y00761
Y00713
Y00665
X0320772Y0097886
X0317639Y0098541
X0314523Y0097815
X0321645Y0110828
X0324777Y0110172
X0327894Y0110896
X0291442Y0097889
X0288309Y0098541
X0285193Y0097812
X0224805Y0123489
X022403Y0127
Y01318
Y01366
Y01414
Y01462
Y0151
Y01558
X021643Y01551
X0216488Y0158301
X0214957Y0161111
X0218234Y0160983
X0220755Y0162954
X0222767Y0169001
X02194Y01697
X0217197Y0171827
X0214255Y0171882
X0215779Y0174696
X021583Y01813
Y01861
Y01909
Y01957
Y02005
Y02053
Y02101
Y02149
Y02197
X020823Y02181
Y02133
Y02085
Y02037
Y01989
Y01941
Y01893
Y01845
Y01797
X0201131Y01807
Y01855
Y01903
Y01951
Y01999
Y02047
Y02095
Y02143
Y02191
X0193831Y02187
Y02139
Y02091
Y02043
Y01995
Y01947
Y01899
Y01851
Y01803
X0186431Y01813
Y01861
Y01909
Y01957
Y02005
Y02053
Y02101
Y02149
Y02197
X017923Y02182
Y02134
Y02086
Y02038
Y0199
Y01942
Y01894
Y01846
Y01798
X0171931Y01807
Y01855
Y01903
Y01951
Y01999
Y02047
Y02095
Y02143
Y02191
X0164031
Y02143
Y02095
Y02047
Y01999
Y01951
Y01903
Y01855
Y01807
X015703
Y01855
Y01903
Y01951
Y01999
Y02047
Y02095
Y02143
Y02191
X0149931
Y02143
Y02095
Y02047
Y01999
Y01951
Y01903
Y01855
Y01807
X0142631
Y01855
Y01903
Y01951
Y01999
Y02047
Y02095
Y02143
Y02191
X013503Y02197
Y02149
Y02101
Y02053
Y02005
Y01957
Y01909
Y01861
Y01813
X0127731Y01819
Y01867
Y01915
Y01963
Y02011
Y02059
Y02107
Y02155
Y02203
X0120431Y02191
Y02143
Y02095
Y02047
Y01999
Y01951
Y01903
Y01855
Y01807
X0113031Y01813
Y01861
Y01909
Y01957
Y02005
Y02053
Y02101
Y02149
Y02197
X010573Y0219
Y02142
Y02094
Y02046
Y01998
Y0195
Y01902
Y01854
Y01806
X0098431Y01819
Y01867
Y01915
Y01963
Y02011
Y02059
Y02107
Y02155
Y02203
X0091131Y02182
Y02134
Y02086
Y02038
Y0199
Y01942
Y01894
Y01846
Y01798
X008383Y0181
Y01858
Y01906
Y01954
Y02002
Y0205
Y02098
Y02146
Y02194
X00764Y02174
Y02126
Y02078
Y0203
Y01982
Y01934
Y01886
Y01838
Y0179
X0068955Y017755
Y018075
Y018395
Y018715
Y019035
Y019355
Y019675
Y019995
X0069226Y0206557
Y0211357
Y0216157
X0069258Y0174364
X0070794Y0171557
X0073372Y0169661
X0076503Y0169001
X0079621Y0169721
X0082151Y017168
X0085468Y0171541
X0083924Y0174344
X0088052Y0169654
X0091185Y0169001
X0094301Y0169728
X0096824Y0171696
X0100111Y0171564
X0098577Y0174373
X0102686Y0169665
X0105816Y0169001
X0108935Y0169717
X0111468Y0171673
X0114798Y017153
X011325Y0174331
X0117386Y0169649
X012052Y0169001
X0123635Y0169733
X0126154Y0171707
X0129421Y017158
X0127894Y0174392
X0131991Y0169672
X0135119Y0169001
X013824Y016971
X0140778Y0171658
X0144137Y0171508
X0142579Y0174303
X0146734Y0169638
X014987Y0169001
X0152982Y0169744
X0155493Y0171728
X0158719Y0171611
X0157206Y0174431
X0161276Y0169687
X0164402Y0169001
X0167526Y0169695
X0170076Y0171627
X0173497Y0171463
X0171917Y0174245
X017611Y0169615
X0179251Y0169001
X0182358Y0169766
X018485Y0171774
X0187991Y0171677
X0186506Y0174511
X0190522Y0169719
X019364Y0169001
X0196771Y0169663
X0199348Y0171561
X0202917Y0171365
X0201278Y0174113
X0205561Y0169562
X0208712Y0169001
X0211804Y0169825
X0212383Y0163014
X0209254Y016368
X0206134Y0162966
X02036Y0161013
X0200257Y0161158
X020181Y015836
X0202131Y01542
Y01494
Y01446
Y01398
Y0135
Y01302
Y01254
Y01206
Y01158
Y0111
X019473Y0112
X0194811Y0107381
X0196338Y0104569
X0193072Y0104695
X0190554Y0102721
X0187439Y0101987
X0184305Y0102634
X0181716Y0104514
X0178385Y0104656
X0180167Y0107314
X0180031Y01127
Y01175
Y01223
Y01271
Y01319
Y01367
Y01415
Y01463
Y01511
Y01559
X017996Y0163672
X0183087Y0162994
X0185652Y016108
X0188901Y0160959
X0187173Y0158265
X018733Y01542
Y01494
Y01446
Y01398
Y0135
Y01302
Y01254
Y01206
Y01158
Y0111
X019473Y01168
Y01216
Y01264
Y01312
Y0136
Y01408
Y01456
Y01504
Y01552
X0194529Y0163676
X0197664Y0163033
X0191416Y0162938
X0176838Y0162968
X0174295Y0161026
X0170909Y0161182
X0172477Y0158392
X017283Y01538
Y0149
Y01442
Y01394
Y01346
Y01298
Y0125
Y01202
Y01154
Y01106
X0172734Y0101982
X0169604Y0102646
X0167028Y0104545
X0163742Y0104676
X0165494Y0107353
X0165231Y0112
Y01168
Y01216
Y01264
Y01312
Y0136
Y01408
Y01456
Y01504
Y01552
X0157831Y01542
X0157866Y01582
X0156365Y0161026
X0159555Y0160918
X0162056Y0162914
X0165166Y0163667
X0168304Y016304
X0153818Y0162963
X0150696Y0163663
X0147569Y0162981
X0145008Y0161063
X0141525Y0161238
X0143131Y0158471
X014323Y01538
Y0149
Y01442
Y01394
Y01346
Y01298
Y0125
Y01202
Y01154
Y01106
X0135871Y0110521
Y0113721
Y0116921
Y0120121
Y0123321
X0135931Y01274
Y01322
Y0137
Y01418
Y01466
Y01514
Y01562
X0135754Y0163658
X0138898Y0163066
X0132652Y0162871
X0130179Y016084
X0128758Y0157973
X0128541Y015478
Y015158
Y014838
Y014518
Y014198
Y013878
Y013558
Y013238
Y012918
X0125973Y0127271
X0122773Y012727
X0119573Y0127269
X0116373Y0127268
X0113176Y0127127
X0110141Y0126116
X0107504Y0124302
X0105541Y0121775
X0104435Y0118772
X0104402Y0115572
Y0112372
Y0109172
X010132Y0108313
X0098121Y0108405
X009508Y0104498
Y0099302
X0095573Y0097047
X0098299Y0095372
X0101497Y0095487
X0104424Y0094193
Y0090993
Y0087793
Y0084593
Y0081393
Y0078193
Y0074993
Y0071793
Y0068593
Y0065393
X0112034Y0066721
Y0069921
Y0073121
Y0076321
Y0079521
Y0082721
Y0085921
Y0089121
Y0092321
X0112441Y0095495
X0113098Y0098627
X0112688Y0101731
X0113098Y0104904
X0112355Y0108017
X0112012Y0111198
Y0114399
Y0117598
X0114518Y0119589
X0117717Y0119658
X0120917Y0119659
X0124117Y011966
X0127317Y0119661
X0130509Y011989
X0133368Y0121328
X0136175Y0107335
X0137712Y0104529
X014029Y0102634
X0143421Y0101974
X0146539Y0102694
X0149068Y0104655
X0152386Y0104516
X0150841Y0107319
X015063Y01122
Y0117
Y01218
Y01266
Y01314
Y01362
Y0141
Y01458
Y01506
Y01554
X0157831Y01494
Y01446
Y01398
Y0135
Y01302
Y01254
Y01206
Y01158
Y0111
X0158104Y0101978
X0154971Y010263
X0153701Y0098001
X0156855Y0098541
X015994Y0097689
X0162377Y0095615
X0165185Y0095585
X0163751Y0092725
X016383Y009
Y00852
Y00804
Y00756
Y00708
Y0066
X0171131Y00664
Y00712
Y0076
Y00808
Y00856
Y00904
X0178531Y00897
X0178184Y0093513
X0176514Y0096243
X0180177Y0096017
X0182767Y0097896
X0185902Y0098541
X0189016Y0097806
X0191533Y009583
X0194629Y0095743
X0193002Y0092988
X0193031Y00904
Y00856
Y00808
Y0076
Y00712
Y00664
X018583Y00662
Y0071
Y00758
Y00806
Y00854
Y00902
X0178531Y00849
Y00801
Y00753
Y00705
Y00657
X015643Y00664
Y00712
Y0076
Y00808
Y00856
Y00904
X014903Y00899
Y00851
Y00803
Y00755
Y00707
Y00659
X014173Y00666
Y00714
Y00762
Y0081
Y00858
Y00906
X0134331Y0090751
Y0087551
Y0084351
Y0081151
Y0077952
Y0074752
Y0071552
Y0068352
Y0065152
X01349Y00939
X0136708Y0096541
X0139459Y0098175
X0142644Y0098484
X0145676Y0097459
X0147993Y0095253
X0151045Y0096217
X016122Y0102707
X0167613Y009767
X0170693Y0098538
X017385Y0098015
X0175853Y0102699
X0198908Y0102662
X0202036Y0101991
X0205157Y0102701
X0207695Y0104649
X0211056Y01045
X0209497Y0107294
X0209331Y01126
Y01174
Y01222
Y0127
Y01318
Y01366
Y01414
Y01462
Y0151
Y01558
X021643Y01503
Y01455
Y01407
Y01359
Y01311
Y01263
Y01215
Y01167
Y01119
X021679Y0101996
X0213654Y0102631
X0215116Y0098541
X021199Y0097855
X0209433Y0095931
X0205978Y0096102
X0207572Y0093328
X0208031Y00897
Y00849
Y00801
Y00753
Y00705
Y00657
X0214931Y00665
Y00713
Y00761
Y00809
Y00857
Y00905
X0222531Y00895
X0222297Y0093091
X0220791Y0095915
X021824Y0097847
X0219902Y010274
X0222411Y0104726
X0222531Y00847
Y00799
Y00751
Y00703
Y00655
X020063Y00667
Y00715
Y00763
Y00811
Y00859
Y00907
X0200214Y0098541
X0203357Y0097939
X019711Y0097764
X0098978Y01019
X00921Y00981
X00897Y0098
X009015Y0094945
X0089056Y0091938
Y0088737
Y0085537
Y0082337
Y0079137
Y0075937
Y0072737
Y0069538
Y0066338
X0081446Y0066406
Y0069606
Y0072806
Y0076006
Y0079206
Y0082406
Y0085606
Y0088806
Y0092006
X0078255Y0092242
X0075078Y0092625
X0073002Y0096302
X0069406Y0095295
X0069702Y0102905
X0073002Y0101498
X0074745Y0105037
X0077926Y0105383
X0081126Y0105356
X008413Y0106457
X0087832Y0106351
X0090977Y0105758
X00769Y00989
X0068027Y0068627
X0057215Y006497
X0046373Y0068627
X0047006Y0095295
X0043806
X0040606
X0037406
X0034206
X0031006
X0027806
X0024606
X0021406
X0018206
X0015006
X0011806
X0008616Y0095041
X0005417Y0094973
X0002217
X0003589Y0103227
X0006789
X00095Y0103
X0012102Y0102905
X0015302
X0018502
X0021702
X0024902
X0028102
X0031302
X0034502
X0037702
X0040902
X0044102
X0047302
X0050502
X0053702
X0056902
X0060102
X0063302
X0066502
X0066206Y0095295
X0063006
X0059806
X0056606
X0053406
X0050206
X00106Y00817
Y01165
X0015522Y0212309
X0018251Y0210637
X0021424Y0210226
X0024624
X0027824
X0031024
X0034224
X0037385Y020973
X0037367Y020653
X0037891Y0203373
X0039325Y0200512
X0041586Y0198248
X0044443Y0196807
X0047598Y0196274
X0050798Y0196295
X0053998
X0057198Y0196295
X0060398
X006359Y0196523
X0066449Y019796
X006082Y0203905
X005762
X005442Y0203905
X005122
X004802
X0045242Y0205493
X0044995Y0208684
X0044847Y021188
X0043526Y0214795
X0045108Y0217556
X0041908
X00363Y021753
X00315
X00267
X00219
X0013233Y0218133
X0013752Y0214975
X0048308Y0217556
X0051495Y0217847
X005431Y0219369
X0061625Y0219802
Y0216602
Y0213402
Y0210202
Y0207002
Y0223002
Y0226202
Y0229402
Y0232602
Y0235802
Y0239002
Y0242202
Y0245402
Y0248602
Y0251802
Y0255002
X006203Y0258176
X0063696Y0260908
X0066358Y0262684
X0054474Y0263489
X0054299Y0260014
X0051704Y0261887
X00465Y0261431
X00417
X00369
X00321
X00273
X00225
X00241Y025403
X00289
X00337
X00385
X00433
X00481
X00464Y024673
X00416
X00368
X0032
X00272
X00224
X00239Y023953
X00287
X00335
X00383
X00431
X00479
X00459Y023223
X00411
X00363
X00315
X00267
X00219
X0013236Y0231894
X0013742Y0235054
X0015504Y0237725
X0015741Y0241421
X0013869Y0244015
X0013229Y0247151
X001397Y0250264
X0015952Y0252776
X0016035Y0255856
X0018797Y025424
X001401Y0258334
X0013229Y0261437
X0013827Y0264581
X0015661Y0267204
X0015834Y0270672
X0018432Y0268803
X00242Y0268931
X0029
X00338
X00386
X00434
X00482
X0056901Y0269257
X0056305Y0266113
X0056117Y027236
X005409Y0274836
X0054172Y0277907
X0051325Y0276446
X00461Y02763
X00413
X00365
X00317
X00269
X00221
X0013229Y0276357
X0013913Y0273231
X0013926Y027948
X0015861Y0282029
X0015971Y0285227
X0018686Y0283532
X00242Y0283431
X0029
X00338
X00386
X00434
X00482
X0056901Y0283528
X0056265Y0286665
X0054396Y0289262
X005464Y0292976
X005192Y029129
X00465Y029083
X00417
X00369
X00321
X00273
X00225
X0021696Y0298471
X0024896
X0028096
X0031296
X0034496
X0037696
X0040896
X00448Y029833
X00496
X0056892Y0298813
X0056395Y0295652
X0056003Y0301887
X0053903Y0304301
X0050998Y0305643
X0047802Y0305802
X0045005Y0307357
Y0310557
Y0313757
Y0316957
Y0320157
Y0323357
X0045502Y0326518
X0048055Y0328447
X0051253Y0328557
X0054453
X0057653
X0060835Y0328898
X0063612Y0330489
X006578Y0329643
Y0326443
Y0323243
Y0320043
Y0316843
Y0313643
Y0310443
Y0307243
Y0304043
Y0300843
X0066085Y0297657
X0056157Y0280416
X0056219Y0257454
X0056901Y0254327
X0056203Y0251204
X0054266Y0248657
X0054157Y0245463
X0051441Y0247155
X005615Y0242959
X0056901Y0239849
X0056272Y0236711
X0054412Y0234108
X0054255Y0230726
X0051621Y0232542
X0056198Y0228183
X0056901Y0225061
X0056224Y0221934
X00479Y022463
X00431
X00383
X00335
X00287
X00239
X0019088Y0224996
X0016191Y0223638
X0016212Y0226399
X0014117Y0228818
X0014104Y0221212
X0018227Y0239405
X0013979Y0287732
X0013229Y0290842
X0013859Y029398
X0015721Y0296582
X0018512Y0298147
X0038997Y0301047
X0037591Y0303921
X0037395Y0307115
Y0310315
Y0313515
Y0316715
Y0319915
Y0323115
X0037512Y0326313
X0038383Y0329392
X0040108Y0332088
X0042483Y0334232
X0045371Y033561
X004852Y0336176
X005172Y0336167
X005492
X005812
X0058449Y033935
Y034255
Y034575
Y034895
Y035215
Y035535
Y035855
Y036175
X0058449Y036495
X0059212Y0368058
X0061215Y0370554
X0064069Y0372
X0065919Y0364764
X0066041Y0360347
Y0355547
Y0350747
Y0345947
Y0341147
Y0336347
X006578Y0332843
X00106Y0369299
X0067267Y0372108
X0070217Y0370867
X007238Y0368509
X0075227Y0369972
X0077902Y0371727
X0081064Y0372222
X0084138Y0371333
X0086551Y0369232
X0089261Y036922
X0087893Y0366327
X0087841Y0362947
Y0358147
Y0353347
Y0348547
Y0343747
Y0338947
Y0334147
Y0329347
Y0324547
Y0319747
Y0314947
Y0310147
Y0305347
Y0300547
X0087993Y0292304
X0084862Y0292964
X0082283Y0294857
X0078982Y0294993
X0080745Y0297663
X0080541Y0302347
Y0307147
Y0311947
Y0316747
Y0321547
Y0326347
Y0331147
Y0335947
Y0340747
Y0345547
Y0350347
Y0355147
Y0359947
Y0364747
X0073441Y0364347
Y0359547
Y0354747
Y0349947
Y0345147
Y0340347
Y0335547
Y0330747
Y0325947
Y0321147
Y0316347
Y0311547
Y0306747
Y0301947
X0073339Y0292304
X0070207Y0292961
X0067625Y0294852
X0076456Y0293028
X0091111Y0293026
X0093639Y0294988
X0096949Y029485
X0095408Y0297654
X0095241Y0302647
Y0307447
Y0312247
Y0317047
Y0321847
Y0326647
Y0331447
Y0336247
Y0341047
Y0345847
Y0350647
Y0355447
Y0360247
Y0365047
X0094743Y037222
X0097905Y0371732
X0100584Y0369982
X0104315Y0369733
X0106915Y0371599
X0110052Y0372232
X0113163Y0371485
X0115671Y0369497
X0118734Y0369417
X0117129Y0366648
X0117441Y0362747
Y0357947
Y0353147
Y0348347
Y0343547
Y0338747
Y0333947
Y0329147
Y0324347
Y0319547
Y0314747
Y0309947
Y0305147
Y0300347
X0117311Y0292304
X011418Y0292965
X0111602Y0294861
X0108306Y0294995
X0110065Y0297668
X0109841Y0301747
Y0306547
Y0311347
Y0316147
Y0320947
Y0325747
Y0330547
Y0335347
Y0340147
Y0344947
Y0349747
Y0354547
Y0359347
Y0364147
X0102341Y0362747
X0102277Y0367266
X0102341Y0357947
Y0353147
Y0348347
Y0343547
Y0338747
Y0333947
Y0329147
Y0324347
Y0319547
Y0314747
Y0309947
Y0305147
Y0300347
X0102664Y0292304
X0099531Y029296
X010578Y029303
X0120429Y0293025
X0122959Y0294985
X0126275Y0294845
X0124732Y0297649
X0124541Y0301947
Y0306747
Y0311547
Y0316347
Y0321147
Y0325947
Y0330747
Y0335547
Y0340347
Y0345147
Y0349947
Y0354747
Y0359547
Y0364347
X012431Y0372232
X0127454Y0371638
X013008Y0369809
X0133561Y0369633
X0131685Y0367041
X0132041Y0363147
Y0358347
Y0353547
Y0348747
Y0343947
Y0339147
Y0334347
Y0329547
Y0324747
Y0319947
Y0315147
Y0310347
Y0305547
Y0300747
X0131991Y0292304
X0128859Y0292958
X0135108Y0293032
X0137631Y0295
X0140919Y0294867
X0139385Y0297676
X0139341Y0302347
Y0307147
Y0311947
Y0316747
Y0321547
Y0326347
Y0331147
Y0335947
Y0340747
Y0345547
Y0350347
Y0355147
Y0359947
Y0364747
X0139249Y0372232
X0136122Y0371551
X0142371Y0371532
X0144918Y0369594
X0148108Y0369486
X0146419Y0366768
X0146541Y0363147
Y0358347
Y0353547
Y0348747
Y0343947
Y0339147
Y0334347
Y0329547
Y0324747
Y0319947
Y0315147
Y0310347
Y0305547
Y0300747
X0146625Y0292304
X0143494Y0292968
X0149743Y0293021
X0152276Y0294978
X0155604Y0294835
X0154057Y0297636
X0154041Y0301947
Y0306747
Y0311547
Y0316347
Y0321147
Y0325947
Y0330747
Y0335547
Y0340347
Y0345147
Y0349947
Y0354747
Y0359547
Y0364347
X0153721Y0372232
X0156859Y0371604
X0159464Y0369744
X0162848Y0369588
X016103Y0366954
X0161141Y0362747
Y0357947
Y0353147
Y0348347
Y0343547
Y0338747
Y0333947
Y0329147
Y0324347
Y0319547
Y0314747
Y0309947
Y0305147
Y0300347
X0161326Y0292304
X0158192Y0292953
X0164441Y0293037
X0166961Y0295009
X017023Y0294881
X0168703Y0297693
X0168741Y0301747
Y0306547
Y0311347
Y0316147
Y0320947
Y0325747
Y0330547
Y0335347
Y0340147
Y0344947
Y0349747
Y0354547
Y0359347
Y0364147
X0176041Y0363347
X0175726Y0366824
X0174205Y036964
X0177455Y0369517
X017997Y0371495
X0183084Y0372232
X0186219Y0371589
X0188811Y0369712
X0192153Y0369566
X0190363Y0366914
X0190641Y0363347
Y0358547
Y0353747
Y0348947
Y0344147
Y0339347
Y0334547
Y0329747
Y0324947
Y0320147
Y0315347
Y0310547
Y0305747
Y0300947
X0197841Y0302347
X0198015Y0297729
X019953Y0294911
X0196298Y0295029
X0193786Y0293046
X0190673Y0292304
X0187538Y0292943
X0184942Y0294815
X0181587Y0294964
X0183386Y0297611
X0183341Y0302347
Y0307147
Y0311947
Y0316747
Y0321547
Y0326347
Y0331147
Y0335947
Y0340747
Y0345547
Y0350347
Y0355147
Y0359947
Y0364747
X0176041Y0358547
Y0353747
Y0348947
Y0344147
Y0339347
Y0334547
Y0329747
Y0324947
Y0320147
Y0315347
Y0310547
Y0305747
Y0300947
X0175929Y0292304
X01728Y0292975
X0179049Y0293015
X0202088Y0292989
X0205214Y0292304
X0208338Y0293001
X0210887Y0294935
X0214299Y0294772
X0212722Y0297556
X0212641Y0301947
Y0306747
Y0311547
Y0316347
Y0321147
Y0325947
Y0330747
Y0335547
Y0340347
Y0345147
Y0349947
Y0354747
Y0359547
Y0364347
X0219741Y0363347
X021969Y0366894
X0218144Y0369696
X0221467Y0369555
X0215559Y0371581
X0212425Y0372232
X020931Y0371502
X0206788Y0369532
X020351Y0369662
X020504Y0366851
X0205341Y0363147
Y0358347
Y0353547
Y0348747
Y0343947
Y0339147
Y0334347
Y0329547
Y0324747
Y0319947
Y0315147
Y0310347
Y0305547
Y0300747
X0197841Y0307147
Y0311947
Y0316747
Y0321547
Y0326347
Y0331147
Y0335947
Y0340747
Y0345547
Y0350347
Y0355147
Y0359947
Y0364747
X0197808Y0372232
X0200937Y0371565
X0194688Y0371519
X0171641Y0371554
X0168513Y0372232
X0165392Y0371529
X0150611Y037148
X0121208Y0371446
X009167Y0371326
X0092816Y0260696
X0089134Y0260929
X009081Y0258203
X0091131Y02518
Y0247
Y02422
Y02374
Y02326
Y02278
Y0223
X008383Y02242
Y0229
Y02338
Y02386
Y02434
Y02482
Y0253
X00764Y0251
Y02462
Y02414
Y02366
Y02318
Y0227
Y02222
X0069226Y0220957
Y0225757
Y0230557
Y0235357
Y0240157
Y0244957
Y0249757
Y0254557
X0069514Y0263212
X0072595Y0262348
X0075026Y0260266
X0077806Y0260242
X007639Y0257372
X0080229Y0262333
X0083306Y0263208
X0086465Y0262695
X0095409Y0262572
X0098544Y0263214
X0101657Y0262475
X0104172Y0260496
X0107258Y0260411
X0105638Y0257651
X010573Y02526
Y02478
Y0243
Y02382
Y02334
Y02286
Y02238
X0113031Y02245
Y02293
Y02341
Y02389
Y02437
Y02485
Y02533
X0120431Y02527
Y02479
Y02431
Y02383
Y02335
Y02287
Y02239
X0127731Y02251
Y02299
Y02347
Y02395
Y02443
Y02491
Y02539
X013503Y02533
X0134931Y025776
X0133426Y0260584
X0136627Y0260473
X0139132Y0262464
X0142243Y0263214
X0145381Y0262583
X0147983Y026072
X0151359Y0260565
X0149546Y0257928
X0149931Y02527
Y02479
Y02431
Y02383
Y02335
Y02287
Y02239
X015703
Y02287
Y02335
Y02383
Y02431
Y02479
Y02527
X0164031
Y02479
Y02431
Y02383
Y02335
Y02287
Y02239
X0171931
Y02287
Y02335
Y02383
Y02431
Y02479
Y02527
X017923Y02518
Y0247
Y02422
Y02374
Y02326
Y02278
Y0223
X0186431Y02245
Y02293
Y02341
Y02389
Y02437
Y02485
Y02533
X0193831Y02523
Y02475
Y02427
Y02379
Y02331
Y02283
Y02235
X0201131Y02239
Y02287
Y02335
Y02383
Y02431
Y02479
Y02527
X020823Y02517
Y02469
Y02421
Y02373
Y02325
Y02277
Y02229
X021583Y02245
Y02293
Y02341
Y02389
Y02437
Y02485
Y02533
X021563Y0263214
X021876Y0262552
X0221338Y0260655
X0222873Y0257847
X0208205Y0257874
X020666Y0260677
X0209981Y0260536
X0212511Y0262495
X0204075Y0262562
X0200942Y0263214
X0197826Y0262485
X0195304Y0260515
X0192023Y0260645
X0193554Y0257836
X018945Y0262547
X018632Y0263214
X0183201Y0262499
X0180666Y0260546
X0177327Y0260691
X0178878Y0257892
X0174736Y0262569
X0171602Y0263214
X0168488Y0262478
X0165971Y0260501
X0162716Y0260626
X0164239Y0257811
X0160151Y0262538
X0157023Y0263214
X0153902Y0262509
X0142631Y02527
Y02479
Y02431
Y02383
Y02335
Y02287
Y02239
X013503Y02245
Y02293
Y02341
Y02389
Y02437
Y02485
X0130877Y0262518
X0127753Y0263214
X0124627Y0262529
X0122069Y0260607
X0118606Y0260779
X0120203Y0258007
X0115984Y0262614
X0112841Y0263214
X0109737Y0262434
X0098431Y02539
Y02491
Y02443
Y02395
Y02347
Y02299
Y02251
X0216911Y0292922
X022005Y0292304
X0219741Y0300947
Y0305747
Y0310547
Y0315347
Y0320147
Y0324947
Y0329747
Y0334547
Y0339347
Y0344147
Y0348947
Y0353747
Y0358547
X0226941Y0359747
Y0364547
X0227116Y0372232
X0230247Y037157
X0232824Y0369672
X0236116Y0369539
X0234359Y0366865
X0234841Y0362147
Y0357347
Y0352547
Y0347747
Y0342947
Y0338147
Y0333347
Y0328547
Y0323747
Y0318947
Y0314147
Y0309347
Y0304547
Y0299747
X0234459Y0292304
X0237589Y0292971
X0240162Y0294874
X0243709Y0294684
X0242077Y0297437
X0241741Y0301947
Y0306747
Y0311547
Y0316347
Y0321147
Y0325947
Y0330747
Y0335547
Y0340347
Y0345147
Y0349947
Y0354747
Y0359547
Y0364347
X0241757Y0372232
X0244889Y0371578
X0247472Y0369689
X0250785Y036955
X0249014Y0366885
X0249541Y0363547
Y0358747
Y0353947
Y0349147
Y0344347
Y0339547
Y0334747
Y0329947
Y0325147
Y0320347
Y0315547
Y0310747
Y0305947
Y0301147
X0256652Y0301238
Y0304438
X0258797Y0304997
X0261564Y0303391
X0264752Y030311
X0267775Y0304159
X0270075Y0306384
X0271215Y0309374
X0271313Y0312572
Y0315772
Y0318972
Y0322172
Y0325372
X0271627Y0328557
X0274827
X0278027
X0281227
X0284427
X0287627
X0290827
X0294027
X0297227
X0300427
X0303627
X0306827
X0310027
X0313227
X0316427
X03189Y03286
X03216
X0321883Y0323522
X032193Y0320322
X0321976Y0317123
X0322023Y0313923
X0322054Y0310723
X0321938Y0307525
X0319105Y0306038
X0315905
X0312705
X0309505
X0306305
X0303105
X0300411Y0307766
X0297542Y0309183
X0294342Y0309206
X0291458Y0307819
X0289445Y0305332
X0288705Y0302219
X0289431Y0299102
X0291429Y0296603
X0294307Y0295204
X0297507Y0295208
X0300383Y0296612
X0303017Y0298428
X0306217
X0309417
X0312617
X0315817
X0319017
X0322204Y0298711
X0325149Y0299965
X0327524Y0302109
X0329118Y0304884
X0329728Y0308026
X0329683Y0311225
X032965Y0314425
X0329604Y0317625
X0329557Y0320825
X0329511Y0324024
X0332503Y0325159
X0334Y03294
X0336634Y0329281
X0339834
X0343034
X0346234
X0349434
X0352634
X0355834
X0359034
X0362234
X0365434
X0368634
X0371834
X0375034
X0378234
X0376516Y0336891
X0373316
X0370116
X0366916
X0363716
X0360516
X0357316
X0354116
X0350916
X0347716
X0344516
X0341316
X0338116
X0334916
X0331754Y0337386
X0327091Y0337476
X0323892Y0337427
X032095Y0336167
X031775
X031455
X031135
X030815
X030495
X030175
X029855
X029535
X029215
X028895
X028575
X028255
X027935
X027615
X027295
X0269753Y0336031
X0266819Y0334755
X0263983Y0333272
Y0336472
Y0339672
Y0342872
Y0346072
Y0349272
Y0352472
Y0355672
Y0358872
Y0362072
X0263967Y0365272
X0263069Y0368344
X026096Y0370751
X0258051Y0372083
X0253314Y0371511
X0256741Y0364547
Y0359747
Y0354947
Y0350147
Y0345347
Y0340547
Y0335747
Y0330947
Y0326147
Y0321347
Y0316547
Y0311747
X0256968Y0307623
X0263941Y0310647
Y0315447
Y0320247
Y0325047
Y0329847
X0285073Y0313027
Y0291373
X0283802Y0277431
X0287002Y0277386
X0290202
X0293402
X0296602
X0299802
X0303002
X0306202
X0309402
X0312602
X0315802
X0319002
X0322202
X0325402
X0328602
X0331802
X0335002
X0338202
X0341402
X0344602
X0347802
X0351002
X0349Y02801
X0351669Y0282627
Y0285827
Y0289027
Y0292227
Y0295427
X0351071Y0298571
X0349051Y0301053
X034833Y0304171
X0349029Y0307293
X0351025Y0309794
X0355703Y031137
X0358802Y0310573
X0361234Y0308493
X0362543Y0305573
X0362434Y0302375
X0360951Y0299539
X0359279Y029681
Y029361
Y029041
Y028721
Y028401
X0361511Y0281717
X0364536Y0277337
X0367736
X0370936
X0374136
X0377336
X0376149Y0269726
X0372949
X0369749
X0366549
X0363349
X0360206Y0269125
X0358186Y0269545
X0355014Y0269125
X0351881Y0269776
X0348681
X0345481
X0342281
X0339081
X0335881
X0332681
X0329481
X0326281
X0323081
X0319881
X0316681
X0313481
X0310281
X0307081
X0303881
X0300681
X0297481
X0294281
X0291081
X0287881
X0284681Y0269774
X0281553Y0269096
X0279946Y026633
X0279905Y026313
X0280771Y0260049
X0283971
X0287158Y0259765
X0289978Y0258253
X0291904Y0255697
X0292592Y0252572
X0291899Y0249448
X0289968Y0246896
X0290036Y0244018
X0287145Y0245389
X0282199Y0245248
X0277398
X0272599
X0267798
X0262999
X0258198
X0253398
X0248599
X0241131Y0245318
X0241795Y0242187
X0243694Y0239612
X02435Y023605
X024625Y0237686
X0252136Y0237918
X0256936
X0261736
X0266536
X0271336
X0276136
X0280936
X0285736
X0285257Y0230448
X0282057
X0278857
X0277993Y022826
X0279571Y0225476
X0279905Y0222294
X0272295Y0222047
X0269279Y0223117
X0266079
X0262879
X0259679
X0256479
X0253279
X0250079
X0246885Y0223315
X0244006Y0224711
X0241951Y0227165
X0241131Y0230258
X0241695Y0233407
X0248599Y0230587
X0253398
X0258198
X0262999
X0267798
X0272599
X0275657Y0230448
X0288416Y0230957
X0291092Y0232713
X0292778Y0235432
X0293166Y0238609
X0292199Y0241659
X0297376Y023906
X0295673Y0236351
X0295226Y0233182
Y0229982
Y0226782
Y0223582
X0302825Y022438
Y022918
Y023398
X0303227Y0241271
X0300062Y02408
X0306296Y0240364
X0308697Y0238248
X0311352Y0238243
X0310018Y0235334
X0310026Y0232839
Y022804
Y0223239
X0317357Y0224219
Y0229019
Y0233819
X03247Y02334
X0324377Y0236357
X0322672Y0239065
X0326442Y0238802
X0329047Y024066
X0332185Y0241287
X0335295Y0240533
X0337797Y0238538
X0340842Y0238462
X0343312Y0240496
X0346412Y0241287
X0349558Y0240698
X0352186Y0238873
X0355681Y0238694
X0353797Y0236108
X03542Y02334
Y02286
Y02238
X03613Y02234
Y02282
Y0233
X03686Y02334
X0368536Y0235815
X0367038Y0238643
X037022Y0238536
X0372721Y0240532
X0375831Y0241287
X0378969Y0240661
X03759Y02334
Y02286
Y02238
X03686
Y02286
X0364494Y0240584
X0361372Y0241287
X0358245Y0240609
X03469Y02337
Y02289
Y02241
X03394Y02243
Y02291
Y02339
X03323Y02334
Y02286
Y02238
X03247
Y02286
X0319985Y0240802
X0316819Y024127
X0313751Y024036
X0285124Y0252579
X0280324
X0275427Y0252718
X0272227
X0269027
X0265827
X0262627
X0259427
X0256227
X0253027
X0249827
X0246638Y0252454
X0243804Y0250969
X0241847Y0248436
X0223175Y0248262
Y0245062
Y0241862
Y0238662
Y0235462
Y0232262
Y0229062
Y0225862
Y0222662
Y0251462
Y0254662
X0223158Y0293067
X0225652Y0295071
X0228805Y0294972
X0227317Y0297804
X0226941Y0302147
Y0306947
Y0311747
Y0316547
Y0321347
Y0326147
Y0330947
Y0335747
Y0340547
Y0345347
Y0350147
Y0354947
X0223998Y0371514
X023864Y0371506
X023134Y0293018
X0246348Y0292874
X0249497Y0292304
X0252592Y0293118
X0255049Y0295168
X025645Y0298045
X0275247Y0273652
X0273457Y0271
X0272446Y0267964
X0272295Y0264767
Y0261567
X0272446Y0258371
X0273779Y0255461
X0277697Y027571
X0280633Y0276983
X0306727Y0291373
Y0313027
X0344673Y0315027
Y0293373
X0366327
Y0315027
X0384634Y0329281
X03797Y0336891
X0419688Y0336154
X042329Y0336104
X0425513Y0333803
X042554Y0330603
X0428729Y0330336
X0431929
X0435129
X0438329
X0441529
X0444729
X0448394Y033085
X0449012Y0333989
X0449345Y0337172
X045Y03403
X04501Y03436
X04499Y03467
X0449086Y0349961
X0447059Y0352437
X044633Y0355553
X0447021Y0358677
X044901Y0361185
X0453703Y0362772
X0456802Y0361975
X0459234Y0359895
X0460543Y0356975
X0460434Y0353777
X0458951Y0350941
X0456955Y034844
Y034524
Y034204
X04569Y03395
Y03364
X04572Y03336
X04584Y0331
X0462016Y0330603
X0465216
X0468416
X0471616
X0474816
X0478016
X0481216
X0484416
X0487616
X0490816
X0494016
X0497216
X0500416Y0330617
X050351Y0329802
X050586Y032763
X05089Y03266
X05121Y03264
X0514349Y0321398
X0517981Y0322595
X0521181
X0521313Y0326306
X0522421Y0329308
Y0332508
Y0335708
Y0338908
Y0342108
Y0345308
Y0348508
Y0351708
X0520699Y0354405
X0519319Y0357292
X0519352Y0360492
X0520777Y0363358
X0523299Y0365327
X0526534Y0366001
X0529633Y0365203
X0532064Y0363123
X0533374Y0360203
X0533265Y0357005
X0531782Y035417
X0530031Y0351491
Y0348291
Y0345091
Y0341891
Y0338691
Y0335491
Y0332291
Y0329091
X0532929Y0327733
X0532851Y03212
X0533314Y0314668
X0530115Y0314772
X0527053Y0313843
X0523854Y0313908
X0520841Y0314985
X05182Y03148
X0514349Y0316202
X0510451Y03188
X0511301Y0312294
X0508102Y0312255
X05051Y0311146
X05019Y0311142
X0498752Y0311719
X0495552
X0492352
X0489152
X0485952
X0482752
X0479552
X0476352
X0473152
X0469952
X0466752
X0463552
X0460352
X0457044Y0310905
X04571Y03077
X0449157Y030827
X04489Y03115
X0446264Y0311563
X0443064
X0439864
X0436664
X0433464
X0430264
X0427064
X0425605Y0308715
X0419108Y0314767
X0421304Y0322984
X0424494Y0322726
X0427694
X0430894
X0434094
X0437294
X0440494
X0443694
X0446894
X0450094
X0453278Y0322411
X04565Y03226
X0461011Y0322993
X0464211
X0467411
X0470611
X0473811
X0477011
X0480211
X0483411
X0486611
X0489811
X0493011
X04957Y0323
X04984Y03219
X04985Y03189
X0515504Y0348004
Y0369657
X0464327Y0366429
X0442673
Y0344775
X0464327
X0464627Y0289027
X04571Y02882
Y02915
Y02948
X04495Y0295
X045Y02912
X04499Y02881
X0448387Y028291
X0446882Y0280086
X0446749Y0276889
X0448029Y0273956
X0450445Y0271858
X0453536Y027103
X0456677Y0271639
X0459252Y027354
X0460734Y0276376
X0460843Y0279574
X0459533Y0282493
X0464627Y0267373
X0442973
X0425984Y0270361
X0426126Y0273558
X0425605Y0276715
Y0279915
Y0283115
X04257Y02889
X04256Y02921
Y0295
X0418Y02948
Y02919
Y02886
X0417995Y0282933
Y0279733
Y0276533
X04194Y02686
X04227Y02684
X0423054Y0240619
X0419925Y0241287
X0416805Y0240574
X041427Y0238622
X0410924Y0238769
X0412477Y0235971
X04126Y02328
Y0228
Y02232
X04055Y02241
Y02289
Y02337
X0398
X0397842Y0235875
X0396323Y0238691
X0399568Y023857
X0402083Y0240549
X0405197Y0241287
X0408332Y0240644
X039376Y0240608
X0390633Y0241287
X038751Y0240585
X0384966Y0238645
X0381575Y0238804
X0383144Y0236015
X03832Y02332
Y02284
Y02236
X03907Y02238
Y02286
Y02334
X0398Y02289
Y02241
X04199
Y02289
Y02337
X04272Y02332
X0427156Y0235904
X0425627Y0238715
X0428903Y0238586
X0431424Y0240557
X043454Y0241287
X0437673Y0240636
X0440259Y0238752
X0443583Y0238611
X0441805Y023595
X04421Y02332
Y02284
Y02236
X04494Y02245
Y02293
Y02341
X0449233Y0241287
X0452363Y0240624
X045494Y0238726
X0458231Y0238594
X0456474Y0235918
X04569Y02328
Y0228
Y02232
X0464Y02241
Y02289
Y02337
X04713Y02334
X047113Y0235941
X0469587Y0238744
X0472901Y0238606
X047543Y0240566
X0478548Y0241287
X0481679Y0240627
X0484258Y0238732
X0487556Y0238597
X0490081Y0240562
X0493198Y0241287
X049633Y0240631
X0498912Y023874
X0502221Y0238603
X0500453Y0235936
X05005Y02334
Y02286
Y02238
X05078
Y02286
Y02334
X0507866Y0241287
X0510998Y0240628
X0513578Y0238735
X0516879Y0238599
X0515116Y0235929
X05153Y02339
Y02291
Y02243
X05224
Y02291
Y02339
X0522522Y0241287
X0525654Y024063
X0528235Y0238739
X0531542Y0238602
X0529775Y0235934
X05299Y02328
Y0228
Y02232
X053407Y0240564
X0519405Y0240563
X0504749Y0240565
X04934Y02332
Y02284
Y02236
X04861Y02245
Y02293
Y02341
X04788Y02337
Y02289
Y02241
X04713Y02238
Y02286
X0467004Y0240633
X0463871Y0241287
X0460755Y024056
X0446114Y0240569
X0434645Y0233819
X04348Y02295
Y02247
X04272Y02236
Y02284
X0442973Y0289027
X0418671Y0324802
X041751Y0327784
X0383736Y0277337
X0379349Y0269726
X0537187Y0241287
X0540318Y0240629
X0542899Y0238736
X0544437Y023593
X0544742Y0232745
Y0229545
Y0226345
Y0223145
X05373Y02243
Y02291
Y02339
X05365Y03152
X0536749Y0318602
Y0323798
X0539684Y0325005
X0542884
X0546084
X0549285
X0552485
X0555685
X0558884
X0562084
X0565284
X0568484
X0571685
X0574885
X0578085
X0581285
X0584484
X0587684
X0590884
X0594085
X0597285
X0600485
X0603685
X0606884
X0610084
X0613284
X0616484
X0619685
X0622868Y0325327
X0626068
X0627138Y0317073
X0623938
X0620745Y031729
X0617547Y0317395
X0614347
X0611147
X0607947
X0604747
X0601547
X0598347
X0595147
X0591947
X0588747
X0585547
X0582347
X0579147
X0575947
X0572747
X0569547
X0566347
X0563147
X0559947
X0556747
X0553547
X0550347
X0547147
X0543947
X0540747
X05363Y03275
X0537157Y0348004
Y0369657
X0619321Y0369299
Y03386
Y03038
X0620745Y0382789
X0617547Y0382894
X0614347
X0611147
X0607947
X0604747
X0601547
X0598347
X0595147
X0591947
X0588747
X0585547
X0582347
X0579147
X0575947
X0572747
X0569547
X0566347
X0563147
X0559947
X0556747
X0553547
X0550347
X0547147
X0543947
X0540747
X0537547
X0537024Y0390504
X0540224
X0543424
X0546624
X0549824
X0553024
X0556224
X0559424
X0562624
X0565824
X0569024
X0572224
X0575424
X0578624
X0581824
X0585024
X0588224
X0591424
X0594624
X0597824
X0601024
X0604224
X0607424
X0610624
X0613824
X0617024
X0620224
X0623408Y0390826
X0626608
X0627138Y0382572
X0623938
X0619321Y0404099
X0533824Y0390504
X0530624
X0527424
X0524224
X0521024
X0517824
X0514624
X0511424
X0508224
X0505024
X0501824
X0498624
X0495424
X0492224
X0489024
X0485824
X0482624
X0479424
X0476224
X0473024
X0469824
X0466624
X0463424
X0460224
X0457024
X0453824
X0450624
X0447424
X0444224
X0441024
X0437824
X0434624
X0431424
X0428224
X0425024
X0421824
X0418624
X0415424
X0412224
X0409024
X0405824
X0402624
X0399424
X0396224
X0393024
X0389824
X0386624
X0383424
X0380224
X0380747Y0382894
X0383947
X0387147
X0390347
X0393547
X0396747
X0399947
X0403147
X0406347
X0409547
X0412747
X0415947
X0419147
X0422347
X0425547
X0428747
X0431947
X0435147
X0438347
X0441547
X0444747
X0447947
X0451147
X0454347
X0457547
X0460747
X0463947
X0467147
X0470347
X0473547
X0476747
X0479947
X0483147
X0486347
X0489547
X0492747
X0495947
X0499147
X0502347
X0505547
X0508747
X0511947
X0515147
X0518347
X0521547
X0524747
X0527947
X0531147
X0534347
X0377547
X0374347
X0371147
X0367947
X0364747
X0361547
X0358347
X0355147
X0351947
X0348747
X0345547
X0342347
X0339147
X0335947
X0332747
X0329547
X0326347
X0323147
X0319947
X0316747
X0313547
X0310347
X0307147
X0303947
X0300747
X0297547
X0294347
X0291147
X0287947
X0284747
X0281547
X0278347
X0275147
X0271947
X0268747
X0265547
X0262347
X0259147
X0255947
X0252747
X0249547
X0246347
X0243147
X0239947
X0236747
X0233547
X0230347
X0227147
X0223947
X0223424Y0390504
X0226624
X0229824
X0233024
X0236224
X0239424
X0242624
X0245824
X0249024
X0252224
X0255424
X0258624
X0261824
X0265024
X0268224
X0271424
X0274624
X0277824
X0281024
X0284224
X0287424
X0290624
X0293824
X0297024
X0300224
X0303424
X0306624
X0309824
X0313024
X0316224
X0319424
X0322624
X0325824
X0329024
X0332224
X0335424
X0338624
X0341824
X0345024
X0348224
X0351424
X0354624
X0357824
X0361024
X0364224
X0367424
X0370624
X0373824
X0377024
X0220224
X0217024
X0213824
X0210624
X0207424
X0204224
X0201024
X0197824
X0194624
X0191424
X0188224
X0185024
X0181824
X0178624
X0175424
X0172224
X0169024
X0165824
X0162624
X0159424
X0156224
X0153024
X0149824
X0146624
X0143424
X0140224
X0137024
X0133824
X0130624
X0127424
X0124224
X0121024
X0117824
X0114624
X0111424
X0108224
X0105024
X0101824
X0098624
X0095424
X0092224
X0089024
X0085824
X0082624
X0079424
X0076224
X0073024
X0069824
X0070347Y0382894
X0067147
X0073547
X0076747
X0079947
X0083147
X0086347
X0089547
X0092747
X0095947
X0099147
X0102347
X0105547
X0108747
X0111947
X0115147
X0118347
X0121547
X0124747
X0127947
X0131147
X0134347
X0137547
X0140747
X0143947
X0147147
X0150347
X0153547
X0156747
X0159947
X0163147
X0166347
X0169547
X0172747
X0175947
X0179147
X0182347
X0185547
X0188747
X0191947
X0195147
X0198347
X0201547
X0204747
X0207947
X0211147
X0214347
X0217547
X0220747
X0063947
X0060747
X0057547
X0054347
X0051147
X0047947
X0044747
X0041547
X0038347
X0035147
X0031947
X0028747
X0025547
X0022347
X0019147
X0015947
X0012747
X0009547
X0006363Y0382572
X0003163
X0002632Y0390826
X0005832
X0009029Y039067
X0012224Y0390504
X0015424
X0018624
X0021824
X0025024
X0028224
X0031424
X0034624
X0037824
X0041024
X0044224
X0047424
X0050624
X0053824
X0057024
X0060224
X0063424
X0066624
X00106Y0404099
T02
X00105Y00081
X00205
X00305
X00405
X00505
X00605
X00555Y00181
X00455
X00355
X00255
X00155
X00205Y00281
X00105
X00155Y00381
X00255
X00355
X00455
X00555
X00655
X00605Y00281
X00505
X00405
X00305
Y00481
X00205
X00105
X00155Y00581
X00255
X00355
X00455
X00605Y00481
X00655Y00181
X00755
X00855
X00955
X01055
X01155
X01255
X01205Y00281
X01105
X01005
X00905
X00805
X00705
X00755Y00381
X00855
X00955
X01055
X01005Y00481
X00905
X00805
X00955Y00581
X01155
X01255
X01205Y00481
X01305
Y00081
X01405
X01505
X01605
X01705
X01805
X01905
X02005
X02105
X02205
X01205
X01105
X01005
X00905
X00805
X00705
X02305
X02405
X02505
X02605
X02705
X02905
X03005
X03205
X03305
X03505
X03605
X03705
X03105Y00481
X03805Y00081
X03905
X04005
X04105
X04205
X04305
X04405
X04505
X04605
X04705
X04805
X04905
X05105
X05205
X05155Y00581
X05505Y00481
X05605
X05705
X05805
X06005
X06105
X06205
X06255Y00581
X06155
X06055
X05955
Y00381
X06055
X06155
X06255
X06205Y00281
X06105
X06005
X05905
X05805
X05705
X05605
X05655Y00181
X05755
X05855
X05955
X06055
X06155
X06255
X06205Y00081
X06105
X06005
X05905
X05805
X05705
X05605
X05505
X05405
X05555Y00181
X05455Y00981
X05405Y01081
X05455Y01181
X05405Y01281
X05455Y01381
X05405Y01481
X05455Y01581
X05405Y01681
X05455Y01781
X05505Y01881
X05405
X05455Y01981
X05555
X05655
X05755
Y02181
X05655
X05555
X05855
X05955
X06055
X06155
X06255
X06205Y02081
X06105
X06005
X06055Y01981
X06155
X06255
X06205Y01881
X06105
X06005
X06255Y01781
Y01581
Y01381
Y01181
Y00981
Y00781
X05305Y00681
Y01081
X05205
X05105
X05005
X04905
X04805
X04705
X04605
X04505
X04405
X04305
X04205
X04105
X04005
X03905
X03805
X03855Y00981
X04255
X04205Y00881
X04555Y00981
X04855
X05155
Y01981
X05005Y01881
X03905
X03005
X02905
X02805
X02705
X02605
X02555Y01781
X02655
X02755
X02855
X02955
X03005Y01681
X02905
X02805
X02705
X02605
X02655Y01581
X02555
X02605Y01481
X02705
X02805
X02905
X03005
X02955Y01581
X02855
X02755
Y01381
X02855
X02955
X02905Y01281
X02805
X02705
X02605
X02655Y01381
X02555
X02355
X02405Y01481
X02355Y01581
X02305Y01681
X02405
X02355Y01781
X02405Y01881
Y02081
X02305
X02355Y02181
X02255
X02455
X02555
X02655
X02705Y02081
X02605
X02505
X02555Y01981
X02655
X02755
X02855
X02955
X02855Y02181
Y01181
X02755
X02655
X02555
X02455
X02505Y01081
X02405
X02305
X02605
X02705
X02805
X02905
X03005
X03105
X03205
X03305
X03405
X03505
X03605
X03705
X03555Y00981
X03255
X02955
Y00781
Y01181
X02655Y00981
X02005Y00881
X01655Y00981
Y01381
X01505Y01481
X01405Y01681
X01305
X01255Y01581
X01155
X01055
X00955
X00855
X00755
X00705Y01681
Y01481
X00805
X00905
X01005
X01105
X01205
X01155Y01381
X01055
X00955
X00855
X00755
X00805Y01281
X00905
X01005
X00955Y01181
X00855
X00755
X00705Y01081
X00805
X00905
X01205
X01305
X01255Y00981
X01155
X01205Y00881
X01305
X01255Y00781
X01155
X01205Y00681
X01305
X01005
X00955Y00781
X01005Y00881
X00705
X00755Y00781
X00705Y01281
X01255Y01381
X01105Y01681
X01005
X01055Y01781
X01205Y01881
X01705Y01681
X02005
X02155Y01781
Y01981
X00605Y01881
X00505
X00405
X00305
X00205
X00105
X00155Y01981
X00255
X00355
X00305Y02081
X00205
X00105
X00155Y01781
X00255
X00355
X00455
X00555
X00655
X00605Y01681
X00505
X00405
X00305
X00205
X00105
X00155Y01581
X00255
X00355
X00455
X00555
X00655
X00605Y01481
X00505
X00405
X00305
X00205
X00105
X00155Y01381
X00255
X00355
X00455
X00555
X00655
X00605Y01281
X00505
X00405
X00305
X00205
X00105
Y01081
X00205
X00305
X00405
X00505
X00605
X00655Y01181
X00555
X00455
X00355
X00255
X00305Y00881
X00405
X00505
X00605
X00655Y00781
X00555
X00455
X00355
X00255
X00305Y00681
X00205
X00105
Y00881
X00205
X00605Y00681
X00505Y02081
X00105Y02281
Y02481
Y02681
Y02881
Y03081
X00205
X00305
X00255Y03181
X00155
X00205Y03281
X00305
X00355Y03381
X00255
X00155
X00105Y03481
X00205
X00305
X00405
X00505
X00455Y03381
Y03581
X00555
X00505Y03681
X00405
X00305
X00255Y03581
X00155
X00355
Y03181
X00555
X00605Y03081
X00505
X00605Y02881
X00655Y02781
X00605Y02681
X00105Y03281
X00805Y03481
X00955Y03581
X00905Y02881
X00805
X00705
X00755Y02781
X00855
X00955
X01055
X01155
X01255
X01355
X01455
X01555
X01655
X01755
X01855
X01955
X02055
X02155
X02205Y02881
X02105
X02005
X01905
X01805
X01705
X01605
X01505
X01405
X01305
X01205
X01105
X01005
Y02681
X00905
X00805
X00705
X01105
X01205
X01305
X01405
X01505
X01605
X01705
X01805
X01905
X02005
X02105
X02205
X01905Y03081
X02305Y02881
X02405
X02505
X02605
X02705
X02655Y02781
X02755
Y02981
X02655
X02555Y02781
X02455
X02355
X02255
X02305Y02681
X02405
X02505
X02605
X02555Y02581
X02455
X02355
X02255
X02305Y02481
X02255Y02381
X02355
X02305Y02281
X02805
X02905
X03005Y02481
X03105
X03205
X03305
X03405
X03505
X03605
X03705
X03655Y02581
X03555
X03455
X03355
X03255
X03155
X03055
X02955
X02655
X02755Y03181
X02655Y03381
X02705Y03481
X02805
X02905
X03005
X03105
X03205
X03305
X03405
X03505
X03605
X03705
X03755Y03581
X03655
X03555
X03455
X03355
X03255
X03155
X03055
X02955
X02855
X02755
X02705Y03681
X02805
X02905
X03005
X03105
X03205
X03305
X03405
X03505
X03605
X03705
X03755Y03181
X03555
X03355
Y02981
X03455
X03655
X03755
Y02581
X03505Y02681
X03405
X03305Y02881
X03205
X03155Y03181
Y03381
X03805Y03481
X03905
X0389432Y0353337
X03855Y03581
X03955
X04055
X04155
X04255
X04355
X04305Y03681
X04205
X04105
X04005
X03905
X03805
X0399843Y0344863
X03955Y03381
X0405421Y0335091
X04155Y03381
X04255
X04355
X04455
X04655
X04755
X04855
X04955
X05055
X05155
X05105Y03281
Y03081
X05205
X05305
X05255Y02981
X05155
X05055
X05005Y02881
X05105
X05205
X05305
X05255Y02781
X05305Y02681
X05205
X05005
X04905
X04855Y02581
X04755
X04655
X04555
X04455
X04355
X04255
X04155
X0412325Y0258936
X04055Y02581
X03988Y02596
X03955Y02581
X03855
X0389525Y0264336
X03905Y02481
X03805
X04005
X040467Y0266536
X0406234Y027547
X04155Y02781
X04355
X04305Y02681
X04505
X04755Y02781
X04855
X04955
X04905Y03081
X04805
X04705
X04605
X04405
X04305
X04155Y03181
X041072Y0317276
X0404437Y0319476
X0399232Y03206
X0389598Y0321304
X03855Y03181
X03905Y03081
X04005
X03855Y02981
X0386798Y0293951
X03805Y02881
X03955Y02781
X04205Y03481
X04305
X04505Y03681
X04805
X04905
X05005
X05055Y03581
X05155
X04955
X04855
X04755
X04805Y03481
X04905
X05005
Y03081
X05405
X05505
X05605
X05705
X05805
X05905
X06005
X05955Y02981
X06055
X06155
X06255
X06205Y02881
X06105
X06005
X06055Y02781
X06155
X06255
X06205Y02681
X06105
X06005
X05955Y02581
X06055
X06155
X06255
X06205Y02481
X06105
X06005
X05905
X05805
X05855Y02381
X05955
X06055
X06155
X06255
X06205Y02281
X06105
X06005
X05905
X05805
X05705
X05605
X05505
X05555Y02381
X05455
X05755
X05705Y02681
X05605
X05505
X05555Y02781
X05355
X05405Y02881
X05455Y02981
X05355
X05555
X05755
X05805Y02881
Y03281
X05705
X05605
X05505
X05405
X05355Y03381
X05455
X05555
X05655
X05755
X05855
X05955
X06055
X06105Y03481
X06005
X05905
X05805
X05705
X05605
X05505
X05455Y03581
X05555
X05655
X05755
X05855
X05955
X06055
X06155
X06255
X06205Y03481
Y03281
X06105
X06005
X05905
Y03681
X05805
X05705
X05605
X05505
X06005
X06055Y03781
X05955
X05855
X05755
X05655
X05555
X05455
X05355
Y03981
X05455
X05555
X05655
X05755
X05855
X05955
X06055
X06155
X06255
Y03781
X06155
X05255
X05155
X05055
X04955
X04855
X04755
X04655
X04555
X04455
X04355
X04255
X04155
X04055
X03955
X03855
Y03981
X03955
X04055
X04155
X04255
X04355
X04455
X04555
X04655
X04755
X04855
X04955
X05055
X05155
X05255
X03755
X03655
X03555
X03455
X03355
X03255
X03155
X03055
X02955
X02855
X02755
X02655
X02555
X02455
X02355
X02255
Y03781
X02355
X02455
X02555
X02655
X02755
X02855
X02955
X03055
X03155
X03255
X03355
X03455
X03555
X03655
X03755
X02155
X02055
X01955
X01855
X01755
X01655
X01555
X01455
X01355
X01255
X01155
X01055
X00955
X00855
X00755
Y03981
X00855
X00955
X01055
X01155
X01255
X01355
X01455
X01555
X01655
X01755
X01855
X01955
X02055
X02155
X00655
X00555
X00455
X00355
X00255
X00155
Y03781
X00255
X00355
X00455
X00555
X00655
T03
X05137Y02688
Y02788
X05437
Y02688
X05661Y02639
X05761
X05861
Y02539
X05761
X05661
X05651Y02802
X05751
X05851
M30
